<?xml version="1.0" standalone="no"?>
<!DOCTYPE svg PUBLIC "-//W3C//DTD SVG 20010904//EN"
 "http://www.w3.org/TR/2001/REC-SVG-20010904/DTD/svg10.dtd">
<svg version="1.0" xmlns="http://www.w3.org/2000/svg"
 width="500.000000pt" height="500.000000pt" viewBox="0 0 500.000000 500.000000"
 preserveAspectRatio="xMidYMid meet">
<metadata>
Created by potrace 1.11, written by Peter Selinger 2001-2013
</metadata>
<g transform="translate(0.000000,500.000000) scale(0.100000,-0.100000)"
fill="#000000" stroke="none">
<path d="M495 4514 c-170 -32 -254 -72 -347 -165 -37 -37 -68 -75 -68 -83 0
-9 -4 -16 -9 -16 -9 0 -43 -74 -45 -100 -1 -9 -6 -22 -11 -30 -15 -23 -15
-2678 0 -2749 13 -66 53 -155 84 -191 48 -56 108 -111 134 -123 15 -6 27 -15
27 -18 0 -8 89 -44 145 -59 27 -7 536 -11 1580 -14 847 -2 1547 -4 1555 -5 31
-2 85 -3 98 -2 6 1 19 1 27 1 8 0 23 0 33 0 9 0 33 0 52 -1 19 -1 42 -1 50 0
54 3 172 1 180 -4 5 -3 11 -2 13 2 3 5 31 7 64 5 l58 -4 -1 -161 c0 -177 9
-215 65 -265 65 -58 92 -64 250 -60 129 4 155 8 221 33 106 39 246 149 266
208 3 9 9 17 14 17 13 0 63 147 57 170 -3 11 -1 22 3 25 5 3 8 542 6 1198 -2
1121 -3 1195 -20 1247 -10 30 -23 58 -30 62 -6 4 -7 8 -3 8 9 0 -40 73 -74
111 -42 46 -113 97 -171 123 -130 59 -8 56 -1993 56 l-1820 0 1 352 c2 343 1
354 -19 385 -15 22 -34 35 -62 42 -38 9 -267 13 -310 5z"/>
</g>
</svg>
